<mxfile host="app.diagrams.net" agent="Mozilla/5.0 (Windows NT 10.0; Win64; x64) AppleWebKit/537.36 (KHTML, like Gecko) Chrome/129.0.0.0 Safari/537.36" version="24.7.16">
  <diagram name="第 1 页" id="ayVR1PQf7--7npwxL2th">
    <mxGraphModel dx="719" dy="479" grid="0" gridSize="10" guides="1" tooltips="1" connect="1" arrows="1" fold="1" page="1" pageScale="1" pageWidth="827" pageHeight="1169" math="0" shadow="0">
      <root>
        <mxCell id="0" />
        <mxCell id="1" parent="0" />
        <mxCell id="eK0BLzWJIJVIbG0A-rcE-1" value="compile_run.hpp" style="rounded=0;whiteSpace=wrap;html=1;" vertex="1" parent="1">
          <mxGeometry x="80" y="120" width="140" height="40" as="geometry" />
        </mxCell>
        <mxCell id="eK0BLzWJIJVIbG0A-rcE-2" value="compiler.hpp" style="rounded=0;whiteSpace=wrap;html=1;" vertex="1" parent="1">
          <mxGeometry x="80" y="160" width="70" height="40" as="geometry" />
        </mxCell>
        <mxCell id="eK0BLzWJIJVIbG0A-rcE-3" value="runner.hpp" style="rounded=0;whiteSpace=wrap;html=1;" vertex="1" parent="1">
          <mxGeometry x="150" y="160" width="70" height="40" as="geometry" />
        </mxCell>
        <mxCell id="eK0BLzWJIJVIbG0A-rcE-4" value="compile_server.cc" style="rounded=0;whiteSpace=wrap;html=1;" vertex="1" parent="1">
          <mxGeometry x="80" y="80" width="170" height="40" as="geometry" />
        </mxCell>
        <mxCell id="eK0BLzWJIJVIbG0A-rcE-5" value="网&lt;div&gt;络&lt;/div&gt;&lt;div&gt;服&lt;/div&gt;&lt;div&gt;务&lt;/div&gt;" style="rounded=0;whiteSpace=wrap;html=1;" vertex="1" parent="1">
          <mxGeometry x="220" y="120" width="30" height="80" as="geometry" />
        </mxCell>
      </root>
    </mxGraphModel>
  </diagram>
</mxfile>
